<svg width="38" height="36" viewBox="0 0 38 36" fill="none" xmlns="http://www.w3.org/2000/svg">
<g clip-path="url(#clip0_572_1816)">
<path d="M28.6551 32.9826C29.9454 32.9826 30.9914 31.9982 30.9914 30.7838C30.9914 29.5694 29.9454 28.585 28.6551 28.585C27.3648 28.585 26.3188 29.5694 26.3188 30.7838C26.3188 31.9982 27.3648 32.9826 28.6551 32.9826Z" fill="#F2F7FD" fill-opacity="0.6"/>
<path d="M12.3016 32.9826C13.5919 32.9826 14.6378 31.9982 14.6378 30.7838C14.6378 29.5694 13.5919 28.585 12.3016 28.585C11.0113 28.585 9.96533 29.5694 9.96533 30.7838C9.96533 31.9982 11.0113 32.9826 12.3016 32.9826Z" fill="#F2F7FD" fill-opacity="0.6"/>
<path d="M6.4374 3.08315C6.38449 2.83401 6.24153 2.60981 6.03283 2.44866C5.82413 2.28752 5.56258 2.19937 5.29263 2.19922H0.620117V4.39805H4.33477L8.82038 25.5024C8.87329 25.7516 9.01625 25.9758 9.22495 26.1369C9.43364 26.2981 9.6952 26.3862 9.96515 26.3864H30.9915V24.1875H10.923L9.98851 19.7899H30.9915C31.2572 19.7898 31.515 19.7045 31.7222 19.548C31.9295 19.3915 32.0739 19.1732 32.1316 18.929L34.7809 7.69629H32.3897L30.0546 17.591H9.52126L6.4374 3.08315Z" fill="#F2F7FD" fill-opacity="0.6"/>
<path d="M25.8355 7.24114L21.6466 11.1836V2.19922H19.3104V11.1836L15.1215 7.24114L13.4697 8.79571L20.4785 15.3922L27.4873 8.79571L25.8355 7.24114Z" fill="#F2F7FD" fill-opacity="0.6"/>
</g>
<defs>
<clipPath id="clip0_572_1816">
<rect width="37.3801" height="35.1813" fill="white" transform="translate(0.620117)"/>
</clipPath>
</defs>
</svg>
