<svg width="41" height="25" viewBox="0 0 41 25" fill="none" xmlns="http://www.w3.org/2000/svg">
<path fill-rule="evenodd" clip-rule="evenodd" d="M40.3846 1.31443V0H0V25H40.3846V1.31443ZM39.0925 1.31443H1.29276V23.6862H39.0925V1.31443ZM11.1734 22.4248C8.9594 22.4248 7.14122 21.8893 5.7188 20.8189C4.29701 19.748 3.53215 18.2153 3.42359 16.2203H9.06733C9.1213 16.916 9.31919 17.4193 9.66099 17.7303C10.0034 18.0412 10.4445 18.197 10.9842 18.197C11.4705 18.197 11.8706 18.0734 12.1857 17.8261C12.5009 17.5789 12.6584 17.227 12.6584 16.7691C12.6584 16.202 12.3973 15.7624 11.8756 15.4515C11.3532 15.1405 10.5071 14.7924 9.33718 14.4083C8.09529 13.9876 7.09159 13.5801 6.32673 13.1866C5.56124 12.793 4.89563 12.2165 4.32865 11.4571C3.76167 10.6977 3.47818 9.70431 3.47818 8.47819C3.47818 7.23377 3.784 6.16785 4.39565 5.27979C5.00791 4.39236 5.85403 3.71938 6.93402 3.2621C8.01402 2.8042 9.23793 2.57587 10.6064 2.57587C12.8203 2.57587 14.5889 3.1019 15.912 4.15395C17.2352 5.20663 17.9418 6.68441 18.0317 8.58793H12.28C12.262 7.98433 12.0871 7.53589 11.754 7.2426C11.4209 6.94995 10.9935 6.80362 10.4711 6.80362C10.0754 6.80362 9.75094 6.92282 9.49909 7.1606C9.24723 7.39839 9.1213 7.74592 9.1213 8.20382C9.1213 8.56964 9.26088 8.88564 9.5394 9.15117C9.81855 9.41608 10.1653 9.64503 10.5791 9.8374C10.9935 10.0291 11.6051 10.272 12.4153 10.5646C13.6212 10.986 14.6162 11.4022 15.399 11.8141C16.1819 12.226 16.8568 12.8024 17.4238 13.5435C17.9908 14.2846 18.2749 15.2225 18.2749 16.3578C18.2749 17.5108 17.9908 18.5445 17.4238 19.4597C16.8568 20.3749 16.038 21.0977 14.9667 21.6288C13.896 22.1592 12.6311 22.4248 11.1734 22.4248ZM29.4278 2.87736C27.4297 2.87736 25.6791 3.28481 24.1754 4.09971C22.6724 4.91397 21.5161 6.05305 20.7059 7.5176C19.8958 8.98151 19.4913 10.6561 19.4913 12.5413C19.4913 14.4082 19.9008 16.074 20.7196 17.5379C21.5384 19.0025 22.6997 20.151 24.2027 20.9836C25.7058 21.8161 27.4477 22.2324 29.4278 22.2324H36.961V2.87736H29.4278ZM29.8328 17.5108C28.2845 17.5108 27.0693 17.0756 26.1872 16.2065C25.3051 15.3373 24.8646 14.1156 24.8646 12.5413C24.8646 10.9494 25.3051 9.71819 26.1872 8.84905C27.0693 7.97928 28.2845 7.54472 29.8328 7.54472H31.6684V17.5108H29.8328Z" fill="#F2F7FD"/>
</svg>
