<svg width="36" height="36" viewBox="0 0 36 36" fill="none" xmlns="http://www.w3.org/2000/svg">
<path fill-rule="evenodd" clip-rule="evenodd" d="M23.8205 13.3995C23.8205 14.9789 23.1931 16.4936 22.0763 17.6104C20.9595 18.7272 19.4447 19.3547 17.8653 19.3547C16.2859 19.3547 14.7712 18.7272 13.6544 17.6104C12.5376 16.4936 11.9102 14.9789 11.9102 13.3995C11.9102 11.8201 12.5376 10.3054 13.6544 9.18856C14.7712 8.07175 16.2859 7.44434 17.8653 7.44434C19.4447 7.44434 20.9595 8.07175 22.0763 9.18856C23.1931 10.3054 23.8205 11.8201 23.8205 13.3995ZM20.8429 13.3995C20.8429 14.1892 20.5292 14.9466 19.9708 15.505C19.4124 16.0634 18.655 16.3771 17.8653 16.3771C17.0756 16.3771 16.3183 16.0634 15.7599 15.505C15.2014 14.9466 14.8877 14.1892 14.8877 13.3995C14.8877 12.6098 15.2014 11.8524 15.7599 11.294C16.3183 10.7356 17.0756 10.4219 17.8653 10.4219C18.655 10.4219 19.4124 10.7356 19.9708 11.294C20.5292 11.8524 20.8429 12.6098 20.8429 13.3995Z" fill="#F2F7FD" fill-opacity="0.6"/>
<path fill-rule="evenodd" clip-rule="evenodd" d="M17.8655 1.48926C8.82107 1.48926 1.48877 8.82155 1.48877 17.866C1.48877 26.9104 8.82107 34.2427 17.8655 34.2427C26.9099 34.2427 34.2422 26.9104 34.2422 17.866C34.2422 8.82155 26.9099 1.48926 17.8655 1.48926ZM4.46635 17.866C4.46635 20.9775 5.52786 23.842 7.30697 26.1168C8.55641 24.476 10.1683 23.1463 12.0167 22.2316C13.865 21.3168 15.8999 20.8418 17.9622 20.8435C19.9979 20.8416 22.0072 21.3044 23.8369 22.1965C25.6667 23.0887 27.2686 24.3868 28.5208 25.9918C29.8107 24.2999 30.6793 22.3252 31.0545 20.231C31.4298 18.1369 31.301 15.9834 30.6787 13.9489C30.0565 11.9144 28.9588 10.0573 27.4763 8.5313C25.9939 7.00527 24.1694 5.85418 22.1538 5.17328C20.1381 4.49238 17.9893 4.30124 15.8852 4.61568C13.781 4.93011 11.782 5.74108 10.0534 6.98149C8.32492 8.22189 6.91662 9.85607 5.94506 11.7488C4.97351 13.6415 4.46662 15.7384 4.46635 17.866ZM17.8655 31.2651C14.7896 31.2697 11.8065 30.2115 9.42105 28.2696C10.3812 26.8951 11.6592 25.7728 13.1463 24.9983C14.6334 24.2238 16.2856 23.8199 17.9622 23.8211C19.618 23.8198 21.2502 24.2135 22.7233 24.9696C24.1964 25.7257 25.4678 26.8223 26.432 28.1684C24.028 30.1734 20.9958 31.2695 17.8655 31.2651Z" fill="#F2F7FD" fill-opacity="0.6"/>
</svg>
